<svg xmlns="http://www.w3.org/2000/svg" xmlns:xlink="http://www.w3.org/1999/xlink" viewBox="0 0 2752.27 1516.27"><defs><clipPath id="clip-path"><rect x="1810.62" y="38.43" width="694.28" height="1166.09" rx="57.88" style="fill:#fff"/></clipPath><clipPath id="clip-path-2"><path d="M2029.63,662.16l6.29-51.31c6.34-51.76,49.46-91.72,101.59-92.81,1,0,2,0,3,0h95.14c1.14,0,2.27,0,3.4,0,48,1.14,81,28.24,110.67,74L2418,704.19,2320.85,753l11.8,96.69H2054.52L2067,709.05l-41,41.43Z" style="fill:#ffc967"/></clipPath><clipPath id="clip-path-3"><path d="M2116,520.13s4.64,31.45,52.39,32.89,63.45-37.61,63.45-37.61-108.17-6.54-115.84,4.72" style="fill:#ffd1c1"/></clipPath><clipPath id="clip-path-4"><path d="M2058.57,614.4h145.15A18.26,18.26,0,0,1,2221.61,629l44.51,215.81A381.25,381.25,0,0,1,2274,921.9v283.95H2041.58l7.1-581.68A9.89,9.89,0,0,1,2058.57,614.4Z" style="fill:#4f5285"/></clipPath><clipPath id="clip-path-5"><path d="M2321.63,751.56l76.74-37.51,12.77,42.85s20.77,68.66-10,92.77c-31.42,24.57-309.9-74.36-309.9-74.36l-3.63-37.71Z" style="fill:#ffd1c1"/></clipPath><clipPath id="clip-path-6"><path d="M2180.42,353.27c25.12,5.08,39.07,40.88,31.17,80l-7,34.38a231.18,231.18,0,0,0-4.54,41.47l-.48,25.38h-55.85l8-39.68c-25.12-5.08-39.08-40.88-31.18-80S2155.29,348.18,2180.42,353.27Z" style="fill:#ffd1c1"/></clipPath><clipPath id="clip-path-7"><path d="M2167.53,341.28c-49.93,0-54.22,20.43-54.59,47h-45.66a7.64,7.64,0,0,0-7.64,7.64h162.52C2222.16,365.73,2220.35,341.28,2167.53,341.28Z" style="fill:#fe6d60"/></clipPath><clipPath id="clip-path-8"><path d="M1895.8,812.25l150.32,23.64V805.54h-188.9C1860.27,818.46,1882.53,811.64,1895.8,812.25Z" style="fill:#ffd1c1"/></clipPath><clipPath id="clip-path-9"><path d="M827.86,1006.44l84,331.26H642s-69.49-83.39,14.52-169a79.41,79.41,0,0,0,22.65-55.64H318.86S218.81,1126.33,202.63,1268a21.82,21.82,0,0,0,18.79,24l213.38,28.9a312.17,312.17,0,0,1,139.12,55h0A81.69,81.69,0,0,0,621.26,1391H899.44a54.46,54.46,0,0,0,47.45-27.74l63.66-113.06a92.89,92.89,0,0,0-5.36-99.56L886,983.82Z" style="fill:#ffc967"/></clipPath><clipPath id="clip-path-10"><path d="M1599.21,1403.44v21.85l87.14,34.49a38.79,38.79,0,0,1,24.52,36.07H1500v-92.41Z" style="fill:#ffc967"/></clipPath><clipPath id="clip-path-11"><path d="M1397.76,1384.3l-6.4,17.08,73.4,58.29a38.79,38.79,0,0,1,13,41.62h0l-201.85-61.16,26.28-86.71Z" style="fill:#ffc967"/></clipPath><clipPath id="clip-path-12"><path d="M1470.28,317.37c-24.79,5-38.57,40.35-30.76,78.91l6.86,33.94a227.91,227.91,0,0,1,4.49,40.93l.93,49.62L1509.05,509,1498.54,457c24.79-5,38.57-40.35,30.76-78.92S1495.08,312.35,1470.28,317.37Z" style="fill:#ffd1c1"/></clipPath><clipPath id="clip-path-13"><path d="M1592.94,758.58H1378.46l48.78-250.9a45.71,45.71,0,0,1,44.86-37h0a85.94,85.94,0,0,1,84.75,71.78Z" style="fill:#ffc967"/></clipPath><clipPath id="clip-path-14"><path d="M1529.91,544.35l20.65,101.34H1435.35l-5.19-88.31a50.43,50.43,0,0,1,46.73-53.26h0A50.44,50.44,0,0,1,1529.91,544.35Z" style="fill:#373660"/></clipPath><clipPath id="clip-path-15"><path d="M1536,645.69l5.65,33.62,158.42-20.26s18-17.62,24.62-21.3c5.32-3-4.2,19.57-4.2,19.57h44.28a4.46,4.46,0,0,1,4.37,3.6c1.78,9.07,1,32-53.11,30.08h0l-179,67.26A63.59,63.59,0,0,1,1454,708.62l-10.63-62.93Z" style="fill:#ffd1c1"/></clipPath></defs><g id="Layer_2" data-name="Layer 2"><g id="Layer_1-2" data-name="Layer 1"><path d="M2666.48,1507.1H212.31c-23.08-160.17-46.34-336.46,23.1-482.64,65-136.71,206.75-230.56,357-248.79,58.84-7.14,119.68-3.87,175.94-22.53,77.83-25.81,136-89.59,190.89-150.5C1023.85,531,1089.93,459.08,1170.49,406c134.92-88.87,302.44-118.51,463.72-109.08C1926.3,314,2207.72,457.16,2398.35,679.12S2680,1214.83,2666.48,1507.1Z" style="fill:#f7f7f7"/><rect x="1536.29" y="237.73" width="1242.95" height="767.48" rx="95.39" transform="translate(2779.24 -1536.29) rotate(90)" style="fill:#373660"/><rect x="1810.62" y="38.43" width="694.28" height="1166.09" rx="57.88" style="fill:#fff"/><g style="clip-path:url(#clip-path)"><polygon points="2525.54 264.65 1788.97 517.9 1788.97 889.62 2523.31 646.51 2525.54 264.65" style="fill:#f7f7f7"/><polygon points="1795.1 1067.6 2528.3 813.52 2528.3 1042.78 2041.58 1205.85 1792.89 1205.85 1795.1 1067.6" style="fill:#f7f7f7"/><polygon points="1788.33 388.53 2517.02 124.9 2517.02 29.58 1800.36 29.58 1788.33 388.53" style="fill:#f7f7f7"/></g><path d="M2488.07,38.43H1829.64A55.62,55.62,0,0,0,1774,94.05v70.79a55,55,0,0,0,55,55h0a55,55,0,0,0,55-55,55,55,0,0,0,55,55h0a55,55,0,0,0,55-55,55,55,0,0,0,55,55h0a55,55,0,0,0,55-55,55,55,0,0,0,55,55h0a55,55,0,0,0,55-55,55,55,0,0,0,55,55h0a55,55,0,0,0,55-55,55,55,0,0,0,55,55h0a55,55,0,0,0,55-55,55,55,0,0,0,55,55h0a55,55,0,0,0,55-55V94.05A55.62,55.62,0,0,0,2488.07,38.43Z" style="fill:#373660;opacity:0.30000000000000004"/><path d="M1829.64,0H1884a0,0,0,0,1,0,0V126.41a55,55,0,0,1-55,55h0a55,55,0,0,1-55-55V55.62A55.62,55.62,0,0,1,1829.64,0Z" style="fill:#ffc967"/><path d="M1884,0h110a0,0,0,0,1,0,0V126.41a55,55,0,0,1-55,55h0a55,55,0,0,1-55-55V0a0,0,0,0,1,0,0Z" style="fill:#373660"/><path d="M1993.93,0h110a0,0,0,0,1,0,0V126.41a55,55,0,0,1-55,55h0a55,55,0,0,1-55-55V0a0,0,0,0,1,0,0Z" style="fill:#ffc967"/><path d="M2103.88,0h110a0,0,0,0,1,0,0V126.41a55,55,0,0,1-55,55h0a55,55,0,0,1-55-55V0A0,0,0,0,1,2103.88,0Z" style="fill:#373660"/><path d="M2213.83,0h110a0,0,0,0,1,0,0V126.41a55,55,0,0,1-55,55h0a55,55,0,0,1-55-55V0a0,0,0,0,1,0,0Z" style="fill:#ffc967"/><path d="M2323.78,0h110a0,0,0,0,1,0,0V126.41a55,55,0,0,1-55,55h0a55,55,0,0,1-55-55V0A0,0,0,0,1,2323.78,0Z" style="fill:#373660"/><path d="M2433.74,0h54.33a55.62,55.62,0,0,1,55.62,55.62v70.79a55,55,0,0,1-55,55h0a55,55,0,0,1-55-55V0a0,0,0,0,1,0,0Z" style="fill:#ffc967"/><path d="M2029.63,662.16l6.29-51.31c6.34-51.76,49.46-91.72,101.59-92.81,1,0,2,0,3,0h95.14c1.14,0,2.27,0,3.4,0,48,1.14,81,28.24,110.67,74L2418,704.19,2320.85,753l11.8,96.69H2054.52L2067,709.05l-41,41.43Z" style="fill:#ffc967"/><g style="clip-path:url(#clip-path-2)"><path d="M2116,520.13s4.64,31.45,52.39,32.89,63.45-37.61,63.45-37.61-108.17-6.54-115.84,4.72" style="fill:#ffd1c1"/><g style="clip-path:url(#clip-path-3)"><path d="M2123.72,516.87s5.05,31.56,51.31,37.52c0,0-41.65,10.8-64.43-35.22l13.12-2.3" style="fill:#ffb2a0"/></g><polygon points="2139.41 846.22 2169.53 780.58 2278.06 780.58 2258.49 649.48 2330.63 747.1 2352.07 857.46 2139.41 846.22" style="fill:#ffa648"/></g><path d="M2062.09,849.67v356.18h240.36V1014.73s48.6-76.28,18.16-165.06Z" style="fill:#373660"/><path d="M2058.57,614.4h145.15A18.26,18.26,0,0,1,2221.61,629l44.51,215.81A381.25,381.25,0,0,1,2274,921.9v283.95H2041.58l7.1-581.68A9.89,9.89,0,0,1,2058.57,614.4Z" style="fill:#4f5285"/><g style="clip-path:url(#clip-path-4)"><polygon points="2036.67 835.88 2130.3 835.88 2130.3 805.54 2263.06 829.92 2252.77 797.49 2025.98 750.48 2036.67 835.88" style="fill:#373660"/><rect x="2251.27" y="1202.02" width="3" height="2.5" style="fill:#373660"/><path d="M2254.27,1197.05h-3v-5h3Zm0-9.94h-3v-5h3Zm0-9.95h-3v-5h3Zm0-9.94h-3v-5h3Zm0-10h-3v-5h3Zm0-9.94h-3v-5h3Zm0-9.95h-3v-5h3Zm0-9.94h-3v-5h3Zm0-10h-3v-5h3Zm0-9.94h-3v-5h3Zm0-10h-3v-5h3Zm0-9.94h-3v-5h3Zm0-10h-3v-5h3Zm0-9.94h-3v-5h3Zm0-10h-3v-5h3Zm0-9.94h-3v-5h3Zm0-10h-3v-5h3Zm0-9.94h-3v-5h3Zm0-10h-3v-5h3Zm0-9.94h-3v-5h3Zm0-10h-3v-5h3Zm0-9.94h-3v-5h3Zm0-10h-3v-5h3Zm0-10h-3v-5h3Zm0-9.94h-3v-5h3Zm0-9.94h-3v-5h3Zm0-9.95h-3v-5h3Zm0-10h-3v-5h3Zm0-9.94h-3v-5h3Zm0-9.94h-3v-3.9q0-.48,0-1l3-.24c0,.4.05.8.05,1.2Zm-3.86-9.6-.92-4.88,2.94-.56.92,4.89Zm-1.84-9.77-.92-4.89,2.94-.55.92,4.89Zm-1.84-9.77-.92-4.89,2.94-.55.92,4.88Zm-1.84-9.78-.92-4.88,2.94-.56.92,4.89ZM2243,860l-.92-4.89,3-.55.92,4.89Zm-1.84-9.77-.92-4.89,2.95-.55.92,4.88Zm-1.84-9.78-.92-4.88,2.95-.56.92,4.89Zm-1.84-9.77-.92-4.89,3-.55.92,4.89Zm-1.84-9.77-.92-4.89,2.95-.55.92,4.88Zm-1.84-9.78-.92-4.88,2.95-.56.92,4.89Zm-1.84-9.77-.92-4.89,3-.55.92,4.89Zm-1.84-9.77-.92-4.89,3-.55.91,4.88Zm-1.84-9.77-.92-4.89,2.94-.56.92,4.89Zm-1.84-9.78-.92-4.88,2.94-.56.92,4.89Zm-1.84-9.77-.92-4.89,2.94-.55.92,4.88Zm-1.84-9.78-.92-4.88,2.94-.56.92,4.89Zm-1.84-9.77-.92-4.88,2.94-.56.92,4.89Zm-1.84-9.77-.92-4.89,2.94-.55.92,4.89Zm-1.85-9.77-.92-4.89,3-.56.92,4.89Zm-1.84-9.78-.92-4.88,2.95-.56.92,4.89Zm-1.84-9.77-.92-4.89,2.95-.55.92,4.89Zm-1.84-9.77-.92-4.89,3-.55.92,4.88Zm-1.84-9.78-.92-4.88,3-.56.92,4.89Zm-1.84-9.77-.92-4.89,2.95-.55.92,4.89Zm-1.84-9.77-.92-4.89,3-.55.92,4.88Zm-1.84-9.78-.92-4.88,2.94-.56.92,4.89Zm-2.56-8.93a11.57,11.57,0,0,0-3-3.17l1.75-2.44a14.69,14.69,0,0,1,3.8,4Zm-7-5a11.65,11.65,0,0,0-2.82-.35h-1.76v-3H2192a14.54,14.54,0,0,1,3.54.43Zm-9.55-.35h-5v-3h5Zm-10,0h-5v-3h5Zm-9.94,0h-5v-3h5Zm-9.95,0h-5v-3h5Zm-9.94,0h-5v-3h5Zm-9.95,0h-5v-3h5Zm-9.94,0h-5v-3h5Zm-10,0h-5v-3h5Zm-9.94,0h-5v-3h5Zm-9.95,0h-5v-3h5Zm-9.94,0h-5v-3h5Zm-9.95,0h-5v-3h5Zm-9.94,0h-5v-3h5Zm-10,0h-5v-3h5Zm-9.94,0h-5v-3h5Zm-10,0h-5v-3h5Z" style="fill:#373660"/><rect x="2023.64" y="637.45" width="2.5" height="3" style="fill:#373660"/></g><path d="M2191.3,614.4s8.45-72.06,67.19-94.33c0,0-6.95-2.07-27.92-2.07,0,0-55.74,25.61-64.47,96.4Z" style="fill:#4f5285"/><path d="M2087.29,614.4s1.06-74.12,59.8-96.4c0,0-12.36-.83-31.14,2.13,0,0-45.13,23.48-53.86,94.27Z" style="fill:#4f5285"/><rect x="1946.36" y="646.51" width="166.54" height="159.03" style="fill:#fe6d60"/><rect x="1857.22" y="646.51" width="89.14" height="159.03" style="fill:#e63e36"/><rect x="1889.81" y="646.51" width="11.98" height="159.03" style="fill:#fff"/><rect x="2017.65" y="646.51" width="11.98" height="159.03" style="fill:#fff"/><path d="M2321.63,751.56l76.74-37.51,12.77,42.85s20.77,68.66-10,92.77c-31.42,24.57-309.9-74.36-309.9-74.36l-3.63-37.71Z" style="fill:#ffd1c1"/><g style="clip-path:url(#clip-path-5)"><polyline points="2321.63 751.56 2417.99 758.78 2394.24 689.72 2321.63 751.56" style="fill:#ffb2a0"/></g><path d="M2106.11,740.07s-27.71-39.36-30.36-32.76,3.86,9,2.84,16.63c-1.69,12.68-65-20.39-67-16s7.53,55.7,17.87,61.22c26.42,14.09,83.47,11.18,83.47,11.18Z" style="fill:#ffd1c1"/><path d="M2180.42,353.27c25.12,5.08,39.07,40.88,31.17,80l-7,34.38a231.18,231.18,0,0,0-4.54,41.47l-.48,25.38h-55.85l8-39.68c-25.12-5.08-39.08-40.88-31.18-80S2155.29,348.18,2180.42,353.27Z" style="fill:#ffd1c1"/><g style="clip-path:url(#clip-path-6)"><path d="M2176.44,394.29c0,.6,4.19,16.77-13.18,23.15s-47.91,7-47.91,7,.6-29.94,7.78-33.34S2176.44,394.29,2176.44,394.29Z" style="fill:#ffb2a0"/></g><path d="M2151.79,494.78s18.7.93,34.92-20.88c0,0-10.49,32.93-36.74,29.84Z" style="fill:#ffb2a0"/><path d="M2167.53,341.28c-49.93,0-54.22,20.43-54.59,47h-45.66a7.64,7.64,0,0,0-7.64,7.64h162.52C2222.16,365.73,2220.35,341.28,2167.53,341.28Z" style="fill:#fe6d60"/><g style="clip-path:url(#clip-path-7)"><path d="M2137.89,341.28s-7.19,28.28,22.9,39.51,67.83,8.08,67.83,8.08v10.78H2048.05V388l58.39-4.94,11.49-35.49Z" style="fill:#e63e36"/></g><path d="M2171.69,395.9l1.87,11.72a22.74,22.74,0,0,0,11.63,16.4l8.86,4.79s-1.27-11.13,7.59-11.38,7.08,24.53-2.53,25l4.6,30s17.89-40.85,18.45-57c.6-17.3,0-19.5,0-19.5Z" style="fill:#4f5285"/><path d="M2111.4,395.9l-1.2,4.68a48.49,48.49,0,0,0,1.33,28.39l8,22.22s-3.89-27.1,7.66-55.29Z" style="fill:#4f5285"/><path d="M1895.8,812.25l150.32,23.64V805.54h-188.9C1860.27,818.46,1882.53,811.64,1895.8,812.25Z" style="fill:#ffd1c1"/><g style="clip-path:url(#clip-path-8)"><polyline points="1946.36 805.54 2051.77 820.71 2054.49 798.97 1946.36 805.54" style="fill:#ffb2a0"/></g><circle cx="1047.96" cy="1403.86" r="108.45" transform="translate(-685.74 1152.2) rotate(-45)" style="fill:#373660"/><circle cx="1047.96" cy="1404.74" r="43.77" transform="translate(-506.5 2214.15) rotate(-80.78)" style="fill:#4f5285"/><circle cx="361.9" cy="1364.26" r="146.6" transform="translate(-858.68 655.49) rotate(-45)" style="fill:#373660"/><circle cx="361.9" cy="1365.45" r="59.17" transform="translate(-1029.87 1607.07) rotate(-85)" style="fill:#4f5285"/><path d="M621.26,1391H379.86a27.18,27.18,0,0,1-27.18-27.18h0a27.18,27.18,0,0,1,27.18-27.18h241.4Z" style="fill:#4f5285"/><path d="M827.86,1006.44l84,331.26H642s-69.49-83.39,14.52-169a79.41,79.41,0,0,0,22.65-55.64H318.86S218.81,1126.33,202.63,1268a21.82,21.82,0,0,0,18.79,24l213.38,28.9a312.17,312.17,0,0,1,139.12,55h0A81.69,81.69,0,0,0,621.26,1391H899.44a54.46,54.46,0,0,0,47.45-27.74l63.66-113.06a92.89,92.89,0,0,0-5.36-99.56L886,983.82Z" style="fill:#ffc967"/><g style="clip-path:url(#clip-path-9)"><path d="M827.86,1006.44,868.3,991.6s95.18,265.16,43.58,346.1h0l-84-331.26" style="fill:#ffa648"/><path d="M656.55,1168.73s-110,57.5-44.06,168.62h43l1-168.62" style="fill:#ffa648"/></g><path d="M318.86,1113.09H679.2l-.18-.4a78.26,78.26,0,0,0-71.78-47.06H393.08a78.29,78.29,0,0,0-63.63,32.68Z" style="fill:#373660"/><path d="M827.86,1006.44l111.65-41s-1.68-57.63-2.19-92.94c0-2.25-52.12.05-76.34.28a50.13,50.13,0,0,0-27.34,8.42l-2.14,1.43a50.14,50.14,0,0,0-20.88,53.69Z" style="fill:#ffc967"/><polygon points="937.32 872.54 953.84 872.54 953.84 960.72 939.51 965.48 937.32 872.54" style="fill:#373660"/><path d="M946.89,1363.28l72.54-135s117.15-.42,156.31,135Z" style="fill:#ffa648"/><path d="M475.82,1329.28l-306-44.75,4.39-6a62.3,62.3,0,0,1,59.45-24.68l191,28.71a62.3,62.3,0,0,1,51.23,46.69Z" style="fill:#ffa648"/><path d="M475.82,1329.28l52.51-153S384.28,1132,292.54,1162.58c0,0,33.8-32.19,117.9-26.55s154.91,31.38,154.91,31.38L499,1336.66Z" style="fill:#ffa648"/><path d="M415.28,1391H379.86s-29.56-.16-29.56-32.78c0,0-5.18,37.77,27.53,43.37h30.91Z" style="fill:#373660"/><path d="M1046.55,1418.43h0a18.55,18.55,0,0,1-18.56-18.55v-36.27h37.12v36.27A18.55,18.55,0,0,1,1046.55,1418.43Z" style="fill:#373660"/><path d="M46.93,901.57H255.8A23.45,23.45,0,0,1,279.26,925v196.26a0,0,0,0,1,0,0H23.48a0,0,0,0,1,0,0V925A23.45,23.45,0,0,1,46.93,901.57Z" style="fill:#ffc967"/><path d="M23.48,942.43H279.26S152,975.23,23.48,942.43Z" style="fill:#ffa648"/><path d="M298.18,1130.39H4.56A4.56,4.56,0,0,1,0,1125.84H0a4.56,4.56,0,0,1,4.56-4.56H298.18a4.55,4.55,0,0,1,4.55,4.56h0A4.55,4.55,0,0,1,298.18,1130.39Z" style="fill:#373660"/><rect x="52.95" y="1095.39" width="30.32" height="25.89" style="fill:#4f5285"/><rect x="223.32" y="1095.39" width="30.32" height="25.89" style="fill:#4f5285"/><circle cx="870.21" cy="928.16" r="30.14" transform="translate(-260.67 345.18) rotate(-19.57)" style="fill:#4f5285"/><path d="M761.5,967.16h0a18.72,18.72,0,0,1,11.85-23.68l86.07-28.64a18.72,18.72,0,0,1,23.68,11.85h0a18.72,18.72,0,0,1-11.85,23.68L785.18,979A18.73,18.73,0,0,1,761.5,967.16Z" style="fill:#373660"/><path d="M854.26,884.22a2.13,2.13,0,0,1-2.13-2.14V862.2a33.76,33.76,0,0,0-7-20.51l-16.76-21.77a2.14,2.14,0,0,1,3.39-2.6l16.76,21.76a38.12,38.12,0,0,1,7.87,23.12v19.88A2.14,2.14,0,0,1,854.26,884.22Z" style="fill:#373660"/><path d="M861,883.4c0,.73-3.17,1.32-7.07,1.32s-7.08-.59-7.08-1.32,3.17-1.32,7.08-1.32S861,882.67,861,883.4Z" style="fill:#373660"/><path d="M777.79,807.69h50.76a6.68,6.68,0,0,1,6.68,6.68v6.21a33.88,33.88,0,0,1-33.88,33.88H777.79a6.68,6.68,0,0,1-6.68-6.68V814.37A6.68,6.68,0,0,1,777.79,807.69Z" style="fill:#373660"/><path d="M473.17,1206.73l-100.68-16.92a5.64,5.64,0,0,1-4.63-6.49h0a5.65,5.65,0,0,1,6.5-4.63L475,1195.61a5.64,5.64,0,0,1,4.62,6.5h0A5.63,5.63,0,0,1,473.17,1206.73Z" style="fill:#ffa648"/><path d="M460.51,1231.68l-100.68-16.93a5.62,5.62,0,0,1-4.62-6.49h0a5.63,5.63,0,0,1,6.49-4.62l100.68,16.92a5.64,5.64,0,0,1,4.63,6.49h0A5.65,5.65,0,0,1,460.51,1231.68Z" style="fill:#ffa648"/><path d="M450.74,1258.86l-100.68-16.93a5.62,5.62,0,0,1-4.62-6.49h0a5.62,5.62,0,0,1,6.49-4.62l100.68,16.92a5.63,5.63,0,0,1,4.62,6.49h0A5.64,5.64,0,0,1,450.74,1258.86Z" style="fill:#ffa648"/><path d="M1378.46,758.58s-9.45,82.14,56.07,126a52.09,52.09,0,0,1,23.09,40.5l25.49,478.36h138.7l-28.87-644.86H1378.46" style="fill:#373660"/><path d="M1382.47,747.46S1354.64,804.3,1403.69,866a52.09,52.09,0,0,1,9.66,45.61L1295.8,1351.7l132.11,42.23,165-599.68-210.47-46.79" style="fill:#373660"/><path d="M1599.21,1403.44v21.85l87.14,34.49a38.79,38.79,0,0,1,24.52,36.07H1500v-92.41Z" style="fill:#ffc967"/><g style="clip-path:url(#clip-path-10)"><path d="M1491.8,1433.73s76.73-2.73,113.61-22.73v-19.53h-117Z" style="fill:#ffa648"/></g><circle cx="1547.51" cy="1455.4" r="17.54" transform="translate(-575.86 1520.53) rotate(-45)" style="fill:#373660"/><path d="M1609.71,1429.44l-7.11,14.39a6.18,6.18,0,0,0,3.06,8.41h0a6.18,6.18,0,0,0,7.93-2.74l8.22-15.27Z" style="fill:#373660"/><path d="M1631,1437.9l-7.12,14.39a6.2,6.2,0,0,0,3.07,8.41h0a6.19,6.19,0,0,0,7.93-2.74l8.22-15.27Z" style="fill:#373660"/><path d="M1655,1447.4l-7.12,14.39a6.18,6.18,0,0,0,3.07,8.41h0a6.19,6.19,0,0,0,7.93-2.73l8.21-15.28Z" style="fill:#373660"/><rect x="1499.96" y="1495.85" width="210.9" height="15.65" style="fill:#373660"/><path d="M1397.76,1384.3l-6.4,17.08,73.4,58.29a38.79,38.79,0,0,1,13,41.62h0l-201.85-61.16,26.28-86.71Z" style="fill:#ffc967"/><g style="clip-path:url(#clip-path-11)"><path d="M1287.27,1380.41s52.41,11.82,111.7,10.08l6.48-16.34-105-32Z" style="fill:#ffa648"/></g><circle cx="1333.15" cy="1415.21" r="17.54" transform="translate(-460.54 2165.41) rotate(-69.41)" style="fill:#373660"/><path d="M1400.2,1408.41l-11,11.7a6.19,6.19,0,0,0,.5,8.94h0a6.17,6.17,0,0,0,8.38-.32l12.29-12.23Z" style="fill:#373660"/><path d="M1418.11,1422.67l-11,11.71a6.19,6.19,0,0,0,.5,8.94h0a6.18,6.18,0,0,0,8.38-.33l12.29-12.23Z" style="fill:#373660"/><path d="M1438.36,1438.74l-11,11.7a6.19,6.19,0,0,0,.5,9h0a6.18,6.18,0,0,0,8.38-.33l12.29-12.23Z" style="fill:#373660"/><rect x="1366.74" y="1372.75" width="15.65" height="210.9" transform="translate(-438.73 2365.03) rotate(-73.14)" style="fill:#373660"/><path d="M1474,1235a2.13,2.13,0,0,1-.55-.07,2,2,0,0,1-1.38-2.47l99.12-353.79a2,2,0,1,1,3.85,1.08L1476,1233.52A2,2,0,0,1,1474,1235Z" style="fill:#4f5285"/><path d="M1470.28,317.37c-24.79,5-38.57,40.35-30.76,78.91l6.86,33.94a227.91,227.91,0,0,1,4.49,40.93l.93,49.62L1509.05,509,1498.54,457c24.79-5,38.57-40.35,30.76-78.92S1495.08,312.35,1470.28,317.37Z" style="fill:#ffd1c1"/><g style="clip-path:url(#clip-path-12)"><path d="M1523.69,435.66l-35.3-10.72s-8.48,21,10.15,32.1h0l25.15-21.38" style="fill:#ffb2a0"/><path d="M1468.44,374.4s14.51,29.69,71.71,38.21V372Z" style="fill:#ffb2a0"/></g><path d="M1439.27,443.66A71.32,71.32,0,1,1,1545.42,368a11.84,11.84,0,0,1-11.56,14.25h-58.33v40.37C1475.53,441.22,1455.28,453.14,1439.27,443.66Z" style="fill:#373660"/><polygon points="1498.72 382.24 1498.54 457.04 1506.74 454.08 1506.74 382.24 1498.72 382.24" style="fill:#4f5285"/><path d="M1498.54,457s-1.3-17.41,25.15-21.38C1523.69,435.66,1519.6,457.75,1498.54,457Z" style="fill:#373660"/><circle cx="1450.38" cy="397.42" r="15.18" transform="translate(349.8 1422.26) rotate(-58.28)" style="fill:#4f5285"/><path d="M1456,397.42a5.58,5.58,0,1,1-5.58-5.57A5.58,5.58,0,0,1,1456,397.42Z" style="fill:#373660"/><path d="M1475.53,382.24l3.6,20.76a22.77,22.77,0,0,0,19.65,18.7l40.52,5L1542,379Z" style="fill:#fe6d60;opacity:0.46"/><path d="M1592.94,758.58H1378.46l48.78-250.9a45.71,45.71,0,0,1,44.86-37h0a85.94,85.94,0,0,1,84.75,71.78Z" style="fill:#ffc967"/><g style="clip-path:url(#clip-path-13)"><polyline points="1589.9 740.38 1522.38 761.35 1597.3 763.76 1589.9 740.38" style="fill:#ffa648"/></g><path d="M1497.07,758.58,1456,645.69h-20.63s15.83,112.89,16.41,112.89Z" style="fill:#ffa648"/><path d="M1529.91,544.35l20.65,101.34H1435.35l-5.19-88.31a50.43,50.43,0,0,1,46.73-53.26h0A50.44,50.44,0,0,1,1529.91,544.35Z" style="fill:#373660"/><g style="clip-path:url(#clip-path-14)"><path d="M1547.45,631.84h-7.26v-2.9h7.26Zm-14.51,0h-7.26v-2.9h7.26Zm-14.51,0h-7.25v-2.9h7.25Zm-14.51,0h-7.25v-2.9h7.25Zm-14.5,0h-7.26v-2.9h7.26Zm-14.51,0h-7.25v-2.9h7.25Zm-14.51,0h-7.25v-2.9h7.25Zm-14.51,0h-7.25v-2.9h7.25Z" style="fill:#4f5285"/></g><path d="M1536,645.69l5.65,33.62,158.42-20.26s18-17.62,24.62-21.3c5.32-3-4.2,19.57-4.2,19.57h44.28a4.46,4.46,0,0,1,4.37,3.6c1.78,9.07,1,32-53.11,30.08h0l-179,67.26A63.59,63.59,0,0,1,1454,708.62l-10.63-62.93Z" style="fill:#ffd1c1"/><g style="clip-path:url(#clip-path-15)"><polygon points="1550.56 655.76 1443.37 687.82 1435.35 639.87 1541.97 639.87 1550.56 655.76" style="fill:#ffb2a0"/></g><rect x="1857.22" y="1125.47" width="564.33" height="381.64" style="fill:#e8e8e8"/><rect x="2029.32" y="1125.47" width="47.74" height="78.16" style="fill:#fff"/><rect x="2241.63" y="1125.47" width="179.92" height="381.64" style="fill:#d1d1d1"/><rect x="2307.72" y="1125.47" width="47.74" height="78.16" style="fill:#fff"/><rect x="2372.4" y="1292.25" width="317.71" height="214.86" style="fill:#e8e8e8"/><rect x="2469.29" y="1292.25" width="26.88" height="44" style="fill:#fff"/><rect x="2588.82" y="1292.25" width="101.29" height="214.86" style="fill:#d1d1d1"/><rect x="2626.03" y="1292.25" width="26.88" height="44" style="fill:#fff"/><path d="M760.33,372.68c0-107.69-87.3-195-195-195s-195,87.3-195,195h0c0,76,13,118.63,87.49,229.27,53.9,80.1,86.09,197.2,99.75,255.76,1.91,8.17,13.56,8.17,15.46,0,13.67-58.56,45.85-175.66,99.76-255.76,74.45-110.63,87.49-153.29,87.49-229.26Z" style="fill:#fe6d60"/><circle cx="565.35" cy="377.25" r="88.88" transform="translate(-101.17 510.26) rotate(-45)" style="fill:#e63e36"/><rect x="52.95" y="1510.15" width="2699.32" height="5.41" style="fill:#373660"/></g></g></svg>